<svg width="35" height="41" viewBox="0 0 35 41" fill="none" xmlns="http://www.w3.org/2000/svg">
<path fill-rule="evenodd" clip-rule="evenodd" d="M17.5 3.4375C14.2455 3.4375 11.6071 6.16576 11.6071 9.53125V10.75H23.3929V9.53125C23.3929 6.16576 20.7545 3.4375 17.5 3.4375ZM25.75 10.75V9.53125C25.75 4.81957 22.0564 1 17.5 1C12.9437 1 9.25 4.81957 9.25 9.53125V10.75H1V35.125C1 37.8174 3.11066 40 5.71429 40H29.2857C31.8893 40 34 37.8174 34 35.125V10.75H25.75ZM3.35714 13.1875V35.125C3.35714 36.4712 4.41247 37.5625 5.71429 37.5625H29.2857C30.5875 37.5625 31.6429 36.4712 31.6429 35.125V13.1875H3.35714Z" fill="#7D806A" stroke="#7D806A"/>
</svg>
